<svg xmlns="http://www.w3.org/2000/svg" xmlns:xlink="http://www.w3.org/1999/xlink" width="5000" zoomAndPan="magnify" viewBox="0 0 3750 3749.999967" height="5000" preserveAspectRatio="xMidYMid meet" version="1.0"><defs><g/></defs><g fill="#0cc0df" fill-opacity="1"><g transform="translate(55.519555, 2523.026042)"><g><path d="M 766.398438 -1461.515625 C 618.964844 -1446.902344 477.285156 -1393.332031 348.445312 -1321.605469 C 232 -1256.964844 100.945312 -1176.828125 42.503906 -1051.527344 C -19.921875 -918.261719 36.304688 -796.503906 124.414062 -691.132812 C 218.273438 -578.230469 339.589844 -492.78125 463.117188 -416.183594 C 490.125 -399.359375 517.574219 -382.976562 545.023438 -366.152344 C 528.640625 -348.445312 513.144531 -329.847656 498.535156 -311.695312 C 460.015625 -263.878906 405.117188 -202.777344 394.933594 -140.351562 C 386.960938 -89.878906 419.285156 -49.585938 461.789062 -27.007812 C 556.535156 23.464844 716.8125 6.640625 796.949219 -66.414062 C 909.847656 -170.015625 742.488281 -275.832031 664.125 -324.976562 C 644.199219 -337.375 624.277344 -349.328125 604.351562 -361.726562 C 620.734375 -378.992188 636.671875 -396.261719 653.496094 -413.085938 C 710.613281 -470.640625 774.8125 -518.902344 836.351562 -571.589844 C 842.550781 -576.902344 828.382812 -583.101562 823.957031 -581.328125 C 726.992188 -535.726562 638.445312 -465.328125 563.621094 -386.519531 C 457.359375 -450.277344 351.101562 -514.472656 257.238281 -595.496094 C 143.894531 -693.34375 9.296875 -839.453125 61.097656 -1001.054688 C 108.03125 -1147.164062 259.449219 -1236.597656 386.519531 -1305.667969 C 527.757812 -1381.820312 684.046875 -1436.71875 845.652344 -1437.605469 C 931.542969 -1437.605469 1054.183594 -1426.09375 1083.40625 -1327.804688 C 1109.972656 -1238.8125 1029.835938 -1140.964844 975.820312 -1078.980469 C 854.949219 -939.511719 715.039062 -817.757812 582.214844 -689.804688 C 572.917969 -680.949219 595.941406 -669.4375 604.351562 -676.078125 C 734.519531 -780.566406 859.820312 -889.925781 973.164062 -1012.125 C 1051.085938 -1096.246094 1182.140625 -1236.597656 1109.527344 -1358.796875 C 1042.230469 -1471.253906 880.183594 -1472.582031 766.398438 -1461.515625 Z M 586.199219 -341.359375 C 614.535156 -324.09375 643.3125 -306.382812 671.207031 -288.230469 C 729.648438 -251.039062 841.222656 -181.085938 773.484375 -100.945312 C 720.351562 -37.632812 600.367188 -21.25 523.773438 -36.304688 C 483.480469 -44.273438 437.878906 -66.855469 437.878906 -113.785156 C 438.320312 -157.175781 473.296875 -198.351562 497.207031 -231.558594 C 524.65625 -269.632812 554.765625 -305.941406 586.199219 -341.359375 Z M 586.199219 -341.359375 "/></g></g><g transform="translate(1018.94141, 2523.026042)"><g><path d="M -155.40625 -976.261719 C -96.960938 -977.589844 -37.632812 -1005.484375 18.152344 -1021.863281 C 54.015625 -1032.492188 89.433594 -1042.675781 125.296875 -1051.972656 C 107.144531 -928.886719 93.863281 -804.917969 85.007812 -680.949219 C 73.496094 -526.871094 68.183594 -372.351562 79.253906 -218.273438 C 84.566406 -145.664062 93.421875 -73.054688 107.589844 -1.769531 C 123.085938 76.59375 148.761719 146.992188 183.296875 218.71875 C 185.953125 224.917969 202.335938 229.34375 199.679688 219.160156 C 163.375 74.824219 135.039062 -74.824219 124.855469 -223.589844 C 115.113281 -372.792969 120.425781 -522.445312 131.054688 -671.207031 C 140.792969 -801.820312 153.632812 -933.316406 171.34375 -1064.367188 C 181.085938 -1066.582031 191.265625 -1069.238281 201.449219 -1071.894531 C 262.550781 -1086.949219 324.535156 -1100.675781 386.519531 -1113.070312 C 441.863281 -1124.140625 504.292969 -1126.351562 555.648438 -1151.148438 C 568.933594 -1157.789062 549.007812 -1169.742188 541.925781 -1170.1875 C 482.152344 -1175.054688 421.496094 -1158.675781 362.613281 -1147.164062 C 300.625 -1134.765625 238.640625 -1120.597656 176.65625 -1105.542969 C 200.566406 -1274.675781 231.558594 -1442.917969 271.40625 -1607.621094 C 274.503906 -1619.574219 248.824219 -1629.757812 245.726562 -1617.804688 C 206.765625 -1466.382812 168.6875 -1314.523438 142.566406 -1160.003906 C 138.582031 -1138.308594 135.039062 -1116.171875 131.496094 -1094.03125 C 83.238281 -1081.636719 34.976562 -1067.910156 -12.839844 -1053.742188 C -61.542969 -1039.132812 -131.496094 -1027.621094 -170.015625 -992.644531 C -177.984375 -985.117188 -161.601562 -976.261719 -155.40625 -976.261719 Z M -155.40625 -976.261719 "/></g></g><g transform="translate(1248.285399, 2523.026042)"><g><path d="M 46.929688 -372.351562 C 48.257812 -363.941406 62.425781 -354.640625 70.839844 -360.398438 C 92.535156 -375.007812 91.207031 -407.328125 95.632812 -431.679688 C 104.929688 -484.367188 112.457031 -537.941406 126.625 -590.183594 C 147.878906 -669.878906 184.183594 -750.902344 252.367188 -800.933594 C 253.695312 -802.261719 250.152344 -804.03125 249.269531 -803.148438 C 184.183594 -768.167969 140.351562 -709.285156 116 -640.214844 C 100.945312 -597.269531 91.648438 -552.992188 83.238281 -508.277344 C 81.464844 -498.09375 79.695312 -487.910156 77.921875 -477.726562 C 77.480469 -508.71875 77.921875 -539.269531 79.695312 -570.261719 C 81.464844 -601.253906 84.121094 -632.6875 88.105469 -663.679688 C 92.976562 -699.101562 106.257812 -738.0625 100.503906 -773.039062 C 98.734375 -783.222656 77.039062 -797.390625 68.625 -785.878906 C 52.246094 -761.972656 50.472656 -732.75 45.601562 -704.414062 C 39.847656 -668.550781 36.304688 -632.246094 33.648438 -595.496094 C 30.992188 -558.75 30.105469 -522 30.992188 -485.253906 C 31.433594 -445.40625 39.847656 -411.757812 46.929688 -372.351562 Z M 46.929688 -372.351562 "/></g></g><g transform="translate(1467.88891, 2523.026042)"><g><path d="M 99.175781 -327.632812 C 152.304688 -333.390625 169.128906 -421.054688 185.953125 -461.34375 C 220.046875 -541.480469 260.335938 -562.292969 320.992188 -572.03125 C 327.191406 -573.359375 318.335938 -580.445312 315.238281 -580.445312 C 246.609375 -580 193.039062 -541.925781 161.601562 -481.710938 C 143.894531 -447.621094 133.265625 -391.390625 98.289062 -370.136719 C 53.128906 -342.246094 38.519531 -456.03125 37.632812 -484.367188 C 35.417969 -565.832031 56.671875 -672.09375 114.230469 -733.191406 C 120.425781 -739.832031 133.265625 -755.328125 143.007812 -757.101562 C 160.71875 -760.199219 160.273438 -747.359375 161.160156 -736.292969 C 163.375 -718.582031 152.75 -693.34375 146.105469 -676.964844 C 128.398438 -634.015625 94.304688 -614.09375 66.855469 -580 C 58.886719 -570.261719 77.480469 -560.078125 85.894531 -562.734375 C 150.09375 -581.328125 269.191406 -739.832031 177.097656 -789.421875 C 137.253906 -811.117188 95.632812 -784.109375 69.070312 -754 C 27.449219 -707.511719 9.296875 -642.871094 -1.769531 -582.65625 C -12.839844 -520.230469 -14.609375 -453.816406 11.953125 -394.488281 C 27.007812 -359.953125 57.113281 -323.207031 99.175781 -327.632812 Z M 99.175781 -327.632812 "/></g></g><g transform="translate(1775.156726, 2523.026042)"><g><path d="M 1.769531 -359.953125 C 45.160156 -337.816406 83.238281 -371.464844 108.472656 -404.230469 C 125.742188 -425.925781 141.238281 -448.949219 155.40625 -472.855469 C 168.246094 -494.109375 188.609375 -522.886719 197.464844 -548.566406 C 197.910156 -533.957031 198.792969 -519.789062 200.566406 -505.621094 C 203.664062 -480.382812 206.320312 -450.277344 220.488281 -429.023438 C 294.871094 -315.238281 375.007812 -543.253906 391.390625 -587.527344 C 392.277344 -590.183594 386.078125 -592.839844 385.191406 -590.183594 C 372.351562 -557.863281 357.296875 -530.414062 337.816406 -501.632812 C 325.421875 -483.039062 287.34375 -422.824219 270.078125 -422.824219 C 253.695312 -422.824219 249.710938 -475.511719 248.824219 -487.910156 C 247.054688 -511.816406 247.054688 -535.726562 244.398438 -559.632812 C 240.855469 -586.640625 224.472656 -610.550781 194.367188 -612.320312 C 169.574219 -614.09375 144.777344 -555.648438 131.054688 -529.085938 C 113.785156 -495.878906 69.070312 -388.289062 28.777344 -400.6875 C 16.382812 -404.671875 7.082031 -418.839844 6.199219 -439.207031 C 5.3125 -454.261719 6.640625 -469.3125 8.855469 -483.925781 C 13.28125 -514.917969 24.351562 -545.464844 36.75 -574.246094 C 58 -622.0625 83.238281 -673.863281 122.199219 -710.167969 C 144.777344 -730.980469 177.097656 -750.460938 209.421875 -747.804688 C 250.152344 -745.148438 260.777344 -710.613281 278.488281 -681.390625 C 282.917969 -674.308594 297.527344 -670.320312 302.398438 -678.292969 C 302.398438 -678.292969 313.910156 -730.535156 250.597656 -768.613281 C 212.078125 -792.078125 162.488281 -785.878906 123.085938 -765.511719 C 76.152344 -741.605469 46.046875 -696.886719 21.25 -652.167969 C -8.414062 -599.039062 -34.976562 -540.597656 -40.289062 -479.054688 C -44.273438 -436.992188 -40.734375 -381.207031 1.769531 -359.953125 Z M 1.769531 -359.953125 "/></g></g><g transform="translate(2158.134623, 2523.026042)"><g><path d="M 185.953125 -498.535156 C 188.167969 -529.085938 193.925781 -559.632812 193.480469 -590.628906 C 193.480469 -618.078125 186.839844 -667.664062 149.648438 -669.878906 C 138.136719 -670.320312 135.925781 -666.78125 127.070312 -659.695312 C 81.464844 -625.605469 36.304688 -467.101562 27.449219 -454.703125 C 23.910156 -526.429688 29.222656 -596.824219 52.246094 -667.222656 C 58.886719 -688.03125 12.398438 -705.742188 6.640625 -685.375 C -19.039062 -595.054688 -30.550781 -500.304688 -12.839844 -406.886719 C -9.742188 -389.617188 19.921875 -376.335938 30.992188 -393.605469 C 51.800781 -425.039062 55.785156 -470.640625 66.414062 -506.0625 C 78.367188 -545.023438 104.929688 -614.535156 125.742188 -633.574219 C 135.480469 -642.429688 141.679688 -649.957031 149.207031 -635.34375 C 152.75 -628.261719 148.761719 -606.566406 148.320312 -599.925781 C 146.992188 -576.902344 144.777344 -553.878906 142.566406 -530.855469 C 137.695312 -484.367188 132.382812 -439.648438 154.519531 -397.144531 C 157.617188 -390.503906 165.144531 -385.191406 172.671875 -385.632812 C 200.566406 -387.847656 209.421875 -412.640625 215.617188 -436.992188 C 226.246094 -476.398438 239.085938 -512.261719 249.710938 -551.664062 C 267.863281 -618.519531 296.199219 -704.855469 325.863281 -760.199219 C 327.191406 -730.09375 320.550781 -700.429688 315.238281 -670.320312 C 307.710938 -627.816406 302.398438 -585.3125 298.414062 -542.367188 C 293.101562 -479.496094 277.160156 -378.550781 324.09375 -326.75 C 421.496094 -220.046875 480.824219 -535.285156 487.910156 -582.65625 C 488.351562 -584.429688 483.480469 -586.199219 483.039062 -583.984375 C 469.757812 -526.429688 452.046875 -470.199219 426.808594 -416.625 C 420.167969 -402.902344 413.527344 -388.734375 405.558594 -375.449219 C 401.128906 -366.597656 395.375 -358.183594 388.734375 -350.214844 C 380.765625 -342.246094 363.941406 -336.488281 352.871094 -351.101562 C 344.015625 -356.855469 342.246094 -396.261719 341.359375 -406 C 340.03125 -421.054688 340.472656 -436.109375 340.917969 -451.160156 C 342.6875 -510.488281 348 -570.261719 356.414062 -628.703125 C 364.382812 -685.375 381.648438 -741.160156 362.167969 -796.949219 C 358.183594 -809.34375 329.40625 -822.628906 318.777344 -806.246094 C 292.214844 -765.070312 266.09375 -681.390625 247.496094 -614.976562 C 243.070312 -599.925781 208.09375 -459.128906 184.625 -417.511719 C 185.070312 -444.519531 183.742188 -471.527344 185.953125 -498.535156 Z M 185.953125 -498.535156 "/></g></g><g transform="translate(2637.631806, 2523.026042)"><g><path d="M 177.097656 -471.96875 C 177.984375 -475.070312 171.34375 -477.726562 170.015625 -474.625 C 150.535156 -435.664062 132.824219 -400.246094 105.375 -366.152344 C 99.617188 -359.070312 93.863281 -350.214844 87.222656 -344.015625 C 78.367188 -336.046875 53.128906 -319.222656 40.734375 -325.421875 C 24.792969 -333.832031 25.679688 -387.40625 25.679688 -402.457031 C 26.566406 -489.238281 47.375 -572.472656 68.183594 -656.152344 C 73.054688 -676.078125 32.320312 -693.34375 24.792969 -673.863281 C 1.769531 -611.878906 -10.183594 -544.582031 -17.265625 -479.054688 C -22.582031 -429.023438 -32.320312 -358.183594 2.214844 -315.679688 C 80.582031 -218.273438 162.488281 -420.167969 177.097656 -471.96875 Z M 42.0625 -719.910156 C 49.144531 -719.910156 55.34375 -721.238281 60.214844 -726.992188 C 63.753906 -730.980469 66.414062 -735.40625 69.953125 -739.390625 C 77.480469 -748.246094 85.449219 -754 86.335938 -765.957031 C 87.222656 -779.238281 67.296875 -785.4375 57.558594 -784.109375 C 39.40625 -781.007812 24.351562 -761.527344 16.382812 -746.03125 C 14.609375 -742.046875 16.824219 -736.292969 19.039062 -733.191406 C 23.910156 -725.222656 32.761719 -719.910156 42.0625 -719.910156 Z M 42.0625 -719.910156 "/></g></g><g transform="translate(2856.349819, 2523.026042)"><g><path d="M 106.257812 -443.191406 C 175.769531 -483.925781 247.496094 -523.328125 303.726562 -581.773438 C 309.925781 -588.414062 293.542969 -597.710938 288.230469 -591.957031 C 227.128906 -528.640625 148.320312 -487.464844 73.496094 -442.304688 C 56.671875 -438.765625 40.734375 -431.238281 27.007812 -419.726562 C 27.007812 -469.3125 30.992188 -519.34375 37.632812 -569.375 C 167.800781 -709.726562 277.160156 -879.300781 331.175781 -1063.925781 C 348 -1121.484375 387.847656 -1238.8125 340.03125 -1291.5 C 289.113281 -1347.726562 228.015625 -1256.523438 203.664062 -1218.886719 C 149.207031 -1134.765625 115.113281 -1033.375 85.007812 -938.628906 C 53.574219 -841.222656 30.105469 -741.160156 14.167969 -640.214844 C -2.214844 -537.496094 -19.921875 -425.480469 -0.886719 -321.878906 C 9.296875 -264.765625 38.078125 -176.214844 114.671875 -197.910156 C 186.398438 -218.273438 215.617188 -337.375 178.429688 -396.261719 C 161.160156 -423.710938 134.152344 -439.207031 106.257812 -443.191406 Z M 84.566406 -804.917969 C 119.097656 -940.398438 164.261719 -1077.207031 231.558594 -1200.292969 C 244.398438 -1223.757812 261.664062 -1265.820312 286.457031 -1279.988281 C 348.886719 -1315.851562 336.488281 -1192.324219 333.832031 -1170.628906 C 325.421875 -1099.789062 302.839844 -1029.835938 275.390625 -964.308594 C 218.71875 -829.710938 135.480469 -710.167969 42.0625 -599.480469 C 52.6875 -669.4375 68.183594 -738.503906 84.566406 -804.917969 Z M 104.046875 -226.6875 C 81.464844 -220.488281 57.558594 -246.609375 52.246094 -254.582031 C 31.878906 -284.6875 29.664062 -338.261719 27.894531 -373.679688 C 27.449219 -380.320312 27.449219 -386.960938 27.007812 -393.605469 C 45.160156 -406.445312 64.199219 -417.953125 83.238281 -429.464844 C 108.472656 -433.894531 135.039062 -426.808594 154.078125 -402.015625 C 181.085938 -366.152344 185.070312 -249.269531 104.046875 -226.6875 Z M 104.046875 -226.6875 "/></g></g><g transform="translate(3148.121419, 2523.026042)"><g><path d="M 292.214844 213.40625 C 345.785156 138.582031 368.367188 48.257812 379.878906 -41.175781 C 394.046875 -149.207031 394.933594 -259.449219 383.863281 -367.925781 C 381.207031 -391.832031 378.550781 -416.183594 375.449219 -440.535156 C 427.253906 -496.320312 485.695312 -545.910156 551.222656 -588.414062 C 553.878906 -589.742188 549.453125 -592.839844 547.679688 -591.511719 C 483.480469 -556.09375 425.039062 -510.933594 372.792969 -459.574219 C 362.167969 -525.984375 346.230469 -592.839844 314.351562 -650.839844 C 298.414062 -679.621094 271.40625 -711.941406 234.214844 -701.3125 C 197.464844 -690.6875 177.542969 -633.574219 162.046875 -603.910156 C 151.421875 -583.542969 141.238281 -563.175781 129.28125 -544.136719 C 116.441406 -523.328125 91.207031 -482.597656 65.96875 -475.957031 C -3.984375 -456.472656 31.433594 -629.589844 38.519531 -653.496094 C 44.273438 -671.207031 6.199219 -686.703125 -0.441406 -669.4375 C -22.136719 -610.109375 -39.40625 -503.847656 16.382812 -456.472656 C 72.167969 -409.542969 131.496094 -468.871094 162.046875 -514.472656 C 181.96875 -544.136719 197.023438 -576.460938 213.847656 -607.453125 C 221.816406 -622.503906 232.886719 -649.957031 246.167969 -661.023438 C 270.078125 -680.503906 283.800781 -630.917969 291.773438 -612.320312 C 316.121094 -552.550781 328.960938 -487.023438 336.488281 -421.941406 C 283.800781 -363.496094 238.640625 -298.414062 202.335938 -229.34375 C 161.160156 -150.976562 130.609375 -67.742188 110.246094 18.152344 C 93.421875 88.550781 58 190.824219 113.785156 251.925781 C 173.558594 316.566406 250.152344 272.289062 292.214844 213.40625 Z M 181.085938 252.367188 C 139.464844 257.679688 127.511719 207.648438 124.855469 179.3125 C 120.871094 140.351562 125.296875 98.734375 131.054688 60.214844 C 143.449219 -22.136719 169.574219 -103.160156 203.664062 -179.3125 C 239.527344 -259.007812 284.6875 -332.945312 339.144531 -398.917969 C 341.359375 -377.222656 343.128906 -355.527344 344.902344 -333.832031 C 351.542969 -237.3125 349.328125 -139.910156 336.488281 -43.832031 C 324.09375 44.71875 299.296875 139.910156 239.96875 209.863281 C 225.359375 227.128906 204.992188 249.269531 181.085938 252.367188 Z M 181.085938 252.367188 "/></g></g></g></svg>